<?xml version="1.0" encoding="utf-8"?>
<!-- Generator: Adobe Illustrator 14.0.0, SVG Export Plug-In . SVG Version: 6.00 Build 43363)  -->
<!DOCTYPE svg PUBLIC "-//W3C//DTD SVG 1.1//EN" "http://www.w3.org/Graphics/SVG/1.1/DTD/svg11.dtd">
<svg version="1.1" id="Layer_1" xmlns="http://www.w3.org/2000/svg" xmlns:xlink="http://www.w3.org/1999/xlink" x="0px" y="0px"
	 width="186px" height="175.333px" viewBox="134.755 25.555 186 175.333" enable-background="new 134.755 25.555 186 175.333"
	 xml:space="preserve">
<g>
	<g>
		<defs>
			<rect id="SVGID_1_" width="864.51" height="432.777"/>
		</defs>
		<clipPath id="SVGID_2_">
			<use xlink:href="#SVGID_1_"  overflow="visible"/>
		</clipPath>
		<g clip-path="url(#SVGID_2_)">
			<g>
				<defs>
					<rect id="SVGID_3_" x="0.25" y="0.25" width="864.01" height="432.277"/>
				</defs>
				<clipPath id="SVGID_4_">
					<use xlink:href="#SVGID_3_"  overflow="visible"/>
				</clipPath>
				<g clip-path="url(#SVGID_4_)">
					<g>
						<defs>
							<rect id="SVGID_5_" x="0.25" y="0.25" width="864.01" height="432.277"/>
						</defs>
						<defs>
							<rect id="SVGID_6_" x="0.25" y="0.25" width="864.01" height="432.277"/>
						</defs>
						<defs>
							<rect id="SVGID_7_" x="0.25" y="0.25" width="864.01" height="432.277"/>
						</defs>
						<defs>
							<rect id="SVGID_8_" x="0.25" y="0.25" width="864.01" height="432.277"/>
						</defs>
						<defs>
							<rect id="SVGID_9_" x="0.25" y="0.25" width="864.01" height="432.277"/>
						</defs>
						<defs>
							<rect id="SVGID_10_" x="0.25" y="0.25" width="864.01" height="432.277"/>
						</defs>
						<defs>
							<rect id="SVGID_11_" x="0.25" y="0.25" width="864.01" height="432.277"/>
						</defs>
						<defs>
							<rect id="SVGID_12_" x="0.25" y="0.25" width="864.01" height="432.277"/>
						</defs>
						<defs>
							<rect id="SVGID_13_" x="0.25" y="0.25" width="864.01" height="432.277"/>
						</defs>
						<defs>
							<rect id="SVGID_14_" x="0.25" y="0.25" width="864.01" height="432.277"/>
						</defs>
						<defs>
							<rect id="SVGID_15_" x="0.25" y="0.25" width="864.01" height="432.277"/>
						</defs>
						<defs>
							<rect id="SVGID_16_" x="0.25" y="0.25" width="864.01" height="432.277"/>
						</defs>
						<defs>
							<rect id="SVGID_17_" x="0.25" y="0.25" width="864.01" height="432.277"/>
						</defs>
						<defs>
							<rect id="SVGID_18_" x="0.25" y="0.25" width="864.01" height="432.277"/>
						</defs>
						<defs>
							<rect id="SVGID_19_" x="0.25" y="0.25" width="864.01" height="432.277"/>
						</defs>
						<defs>
							<rect id="SVGID_20_" x="0.25" y="0.25" width="864.01" height="432.277"/>
						</defs>
						<defs>
							<rect id="SVGID_21_" x="0.25" y="0.25" width="864.01" height="432.277"/>
						</defs>
						<defs>
							<rect id="SVGID_22_" x="0.25" y="0.25" width="864.01" height="432.277"/>
						</defs>
						<defs>
							<rect id="SVGID_23_" x="0.25" y="0.25" width="864.01" height="432.277"/>
						</defs>
						<defs>
							<rect id="SVGID_24_" x="0.25" y="0.25" width="864.01" height="432.277"/>
						</defs>
						<clipPath id="SVGID_25_">
							<use xlink:href="#SVGID_5_"  overflow="visible"/>
						</clipPath>
						<clipPath id="SVGID_26_" clip-path="url(#SVGID_25_)">
							<use xlink:href="#SVGID_6_"  overflow="visible"/>
						</clipPath>
						<clipPath id="SVGID_27_" clip-path="url(#SVGID_26_)">
							<use xlink:href="#SVGID_7_"  overflow="visible"/>
						</clipPath>
						<clipPath id="SVGID_28_" clip-path="url(#SVGID_27_)">
							<use xlink:href="#SVGID_8_"  overflow="visible"/>
						</clipPath>
						<clipPath id="SVGID_29_" clip-path="url(#SVGID_28_)">
							<use xlink:href="#SVGID_9_"  overflow="visible"/>
						</clipPath>
						<clipPath id="SVGID_30_" clip-path="url(#SVGID_29_)">
							<use xlink:href="#SVGID_10_"  display="none" overflow="visible"/>
						</clipPath>
						<clipPath id="SVGID_31_" clip-path="url(#SVGID_30_)">
							<use xlink:href="#SVGID_11_"  display="none" overflow="visible"/>
						</clipPath>
						<clipPath id="SVGID_32_" clip-path="url(#SVGID_31_)">
							<use xlink:href="#SVGID_12_"  overflow="visible"/>
						</clipPath>
						<clipPath id="SVGID_33_" clip-path="url(#SVGID_32_)">
							<use xlink:href="#SVGID_13_"  overflow="visible"/>
						</clipPath>
						<clipPath id="SVGID_34_" clip-path="url(#SVGID_33_)">
							<use xlink:href="#SVGID_14_"  overflow="visible"/>
						</clipPath>
						<clipPath id="SVGID_35_" clip-path="url(#SVGID_34_)">
							<use xlink:href="#SVGID_15_"  overflow="visible"/>
						</clipPath>
						<clipPath id="SVGID_36_" clip-path="url(#SVGID_35_)">
							<use xlink:href="#SVGID_16_"  overflow="visible"/>
						</clipPath>
						<clipPath id="SVGID_37_" clip-path="url(#SVGID_36_)">
							<use xlink:href="#SVGID_17_"  overflow="visible"/>
						</clipPath>
						<clipPath id="SVGID_38_" clip-path="url(#SVGID_37_)">
							<use xlink:href="#SVGID_18_"  overflow="visible"/>
						</clipPath>
						<clipPath id="SVGID_39_" clip-path="url(#SVGID_38_)">
							<use xlink:href="#SVGID_19_"  overflow="visible"/>
						</clipPath>
						<clipPath id="SVGID_40_" clip-path="url(#SVGID_39_)">
							<use xlink:href="#SVGID_20_"  overflow="visible"/>
						</clipPath>
						<clipPath id="SVGID_41_" clip-path="url(#SVGID_40_)">
							<use xlink:href="#SVGID_21_"  overflow="visible"/>
						</clipPath>
						<clipPath id="SVGID_42_" clip-path="url(#SVGID_41_)">
							<use xlink:href="#SVGID_22_"  overflow="visible"/>
						</clipPath>
						<clipPath id="SVGID_43_" clip-path="url(#SVGID_42_)">
							<use xlink:href="#SVGID_23_"  overflow="visible"/>
						</clipPath>
						<clipPath id="SVGID_44_" clip-path="url(#SVGID_43_)">
							<use xlink:href="#SVGID_24_"  overflow="visible"/>
						</clipPath>
						<path display="none" clip-path="url(#SVGID_44_)" fill="#4BC2C4" d="M814.34,360.277v10.318
							c-20.009,1.59-31.75-1.91-33.12-18.959c-16.108,18.311-50.7,24.34-84.719,20.16c-31.661-3.891-54-18.291-54.96-52.801
							c-1-36,20.16-51.811,51.839-55.92c33.38-4.341,70.84,0.01,87.84,16.801c3-31.871-10.519-48.95-34.318-55.92
							c-17.239-5.051-43.25-4.25-59.279,1.68c-4.771,1.76-12.191,4.63-13.681,8.64c-1.819,4.92,0.369,13.101-0.48,18.479h-11.52
							c-0.432-13.5-0.881-23.561,6.479-29.279c10.581-8.229,29.67-12.189,46.321-12.959c36.938-1.721,65.34,10.62,74.88,37.199
							c5,13.939,3.12,34.261,3.12,52.561v41.76c0,7.701-0.893,16,4.8,18C802.4,361.736,808.201,359.265,814.34,360.277
							 M780.979,321.876c0.86-10.521-0.17-21.771-5.277-30.722c-8.691-15.22-35.301-19.92-61.2-18.96
							c-22.331,0.83-41.431,3.34-52.081,14.881c-10.95,11.859-12.78,41.51-2.64,56.398c9.461,13.891,31.211,18.971,53.278,19.201
							C747.55,363.037,778.291,354.845,780.979,321.876"/>
						<path display="none" clip-path="url(#SVGID_44_)" fill="#4BC2C4" d="M535.22,210.276c59.481-2.81,88.34,28.521,87.84,86.16
							H473.78c1.068,32.94,14.81,54.95,42.961,62.64c21.409,5.852,49.948,3.303,66.96-5.52c4.829-2.5,12.809-7.24,14.159-12.24
							c1.118-4.148-0.352-10.209,0.238-14.398h11.521c0.969,12.08-0.511,19.898-5.761,25.439
							c-7.562,7.979-20.271,13.92-32.642,17.039c-13.818,3.48-30.42,4.16-45.358,2.16c-28.132-3.76-47.989-18.021-57.119-41.76
							c-9.95-25.881-8.191-60.762,3.357-82.801C483.331,225.585,504.11,211.746,535.22,210.276 M474.02,286.356h137.521
							c-2.471-43.63-27.481-68.54-75.361-66C496.68,222.457,476.05,246.806,474.02,286.356"/>
						<path display="none" clip-path="url(#SVGID_44_)" fill="#4BC2C4" d="M441.86,360.037v10.32
							c-8.641-0.371-17.03,1.09-22.561-1.682c-8.96-4.49-11.439-13.74-10.319-28.08c-8.2,12.801-20.53,23.031-37.44,28.08
							c-16.74,5-40.32,5.609-58.8,1.201c-35.03-8.352-52.8-35.621-52.8-78.721c0-42.4,19.95-69.279,54-77.521
							c18.34-4.44,42-3.8,58.32,1.68c16.64,5.591,28.311,15.271,36.721,29.04v-66.24c0-7.7-0.74-15.48,0-22.08
							c0.89-7.94,8.369-15.31,15.84-16.08c4.949-0.51,10.949,0.38,17.04,0v10.08c-4.28,0.86-11.96-1.25-16.561,0.24
							c-7.03,2.28-4.8,17.98-4.8,29.28v162.239c0,8.029-0.62,16.25,4.8,18C429.97,361.306,437.12,359.167,441.86,360.037
							 M346.82,362.435c43.93-2.078,64.22-29.799,61.92-77.039c-1.05-21.54-9.05-38.26-20.64-48.96
							c-12.02-11.101-31.56-16.84-54.48-15.36c-5.13,0.33-10.59,0.932-15.6,2.16c-32.25,7.9-48.07,34.83-46.56,75.12
							C273.12,342.777,299.07,364.697,346.82,362.435"/>
						<path display="none" clip-path="url(#SVGID_44_)" fill="#FFFFFF" d="M408.74,285.396c2.3,47.24-17.99,74.961-61.92,77.039
							c-47.75,2.262-73.7-19.658-75.36-64.079c-1.51-40.29,14.31-67.22,46.56-75.12c5.01-1.229,10.47-1.83,15.6-2.16
							c22.92-1.479,42.46,4.262,54.48,15.36C399.69,247.136,407.69,263.856,408.74,285.396"/>
						<path clip-path="url(#SVGID_44_)" fill="#307278" d="M317.54,108.516c1.07,11.48-7.5,20.43-17.76,20.64
							c-19.85,0.41-24.17-26.86-9.12-35.28c1.89-1.06,4.29-1.62,6.96-1.92C308.54,90.726,316.65,98.966,317.54,108.516"/>
						<path clip-path="url(#SVGID_44_)" fill="#17504E" d="M306.74,149.796c1.41,10.24-6.1,17.14-14.16,17.04
							c-7.83-0.1-13.41-6.63-13.92-13.2c-0.68-8.77,5.08-14.59,12.24-15.6C299.07,136.886,305.72,142.386,306.74,149.796"/>
						<path clip-path="url(#SVGID_44_)" fill="#4B9399" d="M291.14,48.516c2.42,3.27,4.93,8.39,4.32,15.36
							c-0.94,10.83-9.82,19.62-21.12,19.68c-12.87,0.07-22.38-10.94-21.12-24.48c0.94-10.09,8.91-17.86,18.72-18.96
							C281.33,39.066,287.25,43.256,291.14,48.516"/>
						<path clip-path="url(#SVGID_44_)" fill="#0D3A39" d="M268.82,165.156c8.68-1.48,15.48,4.51,14.64,13.68
							c-0.61,6.58-8.18,14-17.04,10.32c-4.06-1.69-6.99-6.14-7.44-10.08C258.13,171.606,262.99,166.156,268.82,165.156"/>
						<path clip-path="url(#SVGID_44_)" fill="#004244" d="M240.26,179.556c9.12-1.67,15.09,9.19,9.12,16.32
							c-6.35,7.59-16.79,1.27-17.04-6.24C232.17,184.556,235.24,180.476,240.26,179.556"/>
						<path clip-path="url(#SVGID_44_)" fill="#54A7B7" d="M233.06,33.396c4.56,3.94,9.33,11.67,8.4,22.32
							c-1.75,20.11-26.21,28.96-40.56,16.56c-5.82-5.03-9.24-13.26-8.64-21.6c0.76-10.59,7.07-17.67,14.4-21.12
							c1.88-0.88,4.11-1.54,7.68-1.92C222.47,26.766,229,29.886,233.06,33.396"/>
						<path display="none" clip-path="url(#SVGID_44_)" fill="#4BC2C4" d="M233.06,213.156v157.201h-11.52V213.876
							c-0.01-0.41,0.18-0.62,0.48-0.72H233.06z"/>
						<path clip-path="url(#SVGID_44_)" fill="#004350" d="M211.94,178.836c10.99-2.29,14.18,14.16,4.32,16.8
							C205.23,198.586,200.73,181.176,211.94,178.836"/>
						<path clip-path="url(#SVGID_44_)" fill="#091A3A" d="M194.42,168.756c3.88-0.5,7.02,2.12,6.96,6.24
							c-0.13,8.23-12.37,8.08-12.48,0C188.86,171.826,190.5,169.256,194.42,168.756"/>
						<path display="none" clip-path="url(#SVGID_44_)" fill="#4BC2C4" d="M191.06,230.917c5.88,6.949,6.14,18.229,5.52,32.398
							H185.3c-0.68-8.061,1.3-16.1-0.96-21.84c-2.34-5.95-8.84-9.71-14.4-12.479c-16.89-8.432-47.54-11.25-68.16-3.842
							c-25,8.98-40.56,32.391-40.56,66.961c0,34.027,15.84,57.91,41.04,66.479c12.07,4.102,32.54,5.41,48,2.4
							c7.29-1.42,13.85-3.602,20.16-6.721c5.52-2.729,11.98-6.141,14.16-12.479c2.05-5.951-0.05-14.311,0.72-21.84h11.28
							c-0.38,7.889,0.52,12.979,0,19.68c-1.12,14.529-14.95,21.641-25.92,26.16c-12.65,5.209-29.59,7.67-44.64,6.959
							c-32.95-1.561-54.32-14.52-66.48-37.439c-6.19-11.66-9.67-26.189-9.84-42.24c-0.17-16.148,3.1-30.869,9.12-42.959
							c11.38-22.851,32.49-38.051,65.28-39.6c14.02-0.661,27.72,1.009,39.12,4.56C173.82,218.376,184.91,223.645,191.06,230.917"/>
						<path clip-path="url(#SVGID_44_)" fill="#4BC2C4" d="M182.18,68.916c3.98,4.44,7.81,11.87,6.96,21.6
							c-1.17,13.41-12.63,23.91-25.92,24c-13.69,0.1-26.36-10.72-26.4-26.88c-0.03-11.17,5.89-19.27,12.96-23.52
							c3.24-1.95,6.62-3.04,11.76-3.36C170.28,60.206,177.95,64.206,182.18,68.916"/>
						<path clip-path="url(#SVGID_44_)" fill="#0A1B3B" d="M180.74,152.196c3.08-0.38,5.68,1.65,5.52,5.28
							c-0.28,6.41-9.84,6.25-10.08,0C176.08,154.846,177.38,152.616,180.74,152.196"/>
						<path clip-path="url(#SVGID_44_)" d="M175.94,138.516c5.28-1.57,4.95,6.29,0.96,6.24
							C173.621,144.716,172.5,139.546,175.94,138.516"/>
					</g>
				</g>
			</g>
		</g>
	</g>
</g>
</svg>
