<?xml version="1.0" encoding="utf-8"?>
<!-- Generator: Adobe Illustrator 14.0.0, SVG Export Plug-In . SVG Version: 6.00 Build 43363)  -->
<!DOCTYPE svg PUBLIC "-//W3C//DTD SVG 1.1//EN" "http://www.w3.org/Graphics/SVG/1.1/DTD/svg11.dtd">
<svg version="1.1" id="Layer_1" xmlns="http://www.w3.org/2000/svg" xmlns:xlink="http://www.w3.org/1999/xlink" x="0px" y="0px"
	 width="476.977px" height="485.976px" viewBox="0 0 476.977 485.976" enable-background="new 0 0 476.977 485.976"
	 xml:space="preserve">
<g id="Layer_2" display="none">
	<rect x="-209.989" y="-157.492" display="inline" stroke="#FFFFFF" width="853.457" height="797.96"/>
</g>
<g id="Layer_1_1_">
	<g>
		<g>
			<defs>
				<rect id="SVGID_1_" x="-119.603" y="-116.603" width="720" height="719.999"/>
			</defs>
			<clipPath id="SVGID_2_">
				<use xlink:href="#SVGID_1_"  overflow="visible"/>
			</clipPath>
			<path clip-path="url(#SVGID_2_)" fill="#59C8C9" d="M336.962,484.519H141.919c-74.632,0-135.694-61.061-135.694-135.693V140.993
				c0-74.632,61.062-135.694,135.694-135.694h195.043c74.632,0,135.694,61.062,135.694,135.694v207.833
				C472.656,423.458,411.594,484.519,336.962,484.519 M336.962,448.664c26.519,0,51.548-10.428,70.479-29.357
				c18.933-18.932,29.357-43.963,29.357-70.48V140.993c0-26.518-10.426-51.548-29.357-70.48
				c-18.932-18.932-43.961-29.358-70.479-29.358H141.919c-26.518,0-51.548,10.426-70.48,29.358
				c-18.932,18.932-29.358,43.962-29.358,70.48v207.833c0,26.52,10.426,51.549,29.358,70.48s43.962,29.357,70.48,29.357H336.962z"/>
		</g>
		<g>
			<defs>
				<rect id="SVGID_3_" x="-119.603" y="-116.603" width="720" height="719.999"/>
			</defs>
			<clipPath id="SVGID_4_">
				<use xlink:href="#SVGID_3_"  overflow="visible"/>
			</clipPath>
			<path clip-path="url(#SVGID_4_)" fill="#59C8C9" d="M368.602,243.06c0,70.936-57.504,128.439-128.44,128.439
				c-70.935,0-128.44-57.506-128.44-128.439c0-70.936,57.505-128.441,128.44-128.441
				C311.098,114.619,368.602,172.124,368.602,243.06 M239.543,159.057c-46.45,0-84.104,37.655-84.104,84.104
				c0,46.45,37.654,84.104,84.104,84.104s84.104-37.654,84.104-84.104C323.646,196.711,285.993,159.057,239.543,159.057"/>
		</g>
		<g>
			<defs>
				<rect id="SVGID_5_" x="-119.603" y="-116.603" width="720" height="719.999"/>
			</defs>
			<clipPath id="SVGID_6_">
				<use xlink:href="#SVGID_5_"  overflow="visible"/>
			</clipPath>
			<path clip-path="url(#SVGID_6_)" fill="#59C8C9" d="M401.076,112.621c0,16.796-13.616,30.413-30.413,30.413
				c-16.796,0-30.412-13.617-30.412-30.413s13.616-30.413,30.412-30.413C387.46,82.208,401.076,95.825,401.076,112.621"/>
		</g>
	</g>
</g>
</svg>
