<?xml version="1.0" encoding="utf-8"?>
<!-- Generator: Adobe Illustrator 14.0.0, SVG Export Plug-In . SVG Version: 6.00 Build 43363)  -->
<!DOCTYPE svg PUBLIC "-//W3C//DTD SVG 1.1//EN" "http://www.w3.org/Graphics/SVG/1.1/DTD/svg11.dtd">
<svg version="1.1" id="Layer_1" xmlns="http://www.w3.org/2000/svg" xmlns:xlink="http://www.w3.org/1999/xlink" x="0px" y="0px"
	 width="187px" height="178px" viewBox="0 0 187 178" enable-background="new 0 0 187 178" xml:space="preserve">
<g>
	<defs>
		<rect id="SVGID_1_" x="-133.755" y="-23.888" width="864.51" height="432.776"/>
	</defs>
	<clipPath id="SVGID_2_">
		<use xlink:href="#SVGID_1_"  overflow="visible"/>
	</clipPath>
	<g clip-path="url(#SVGID_2_)">
		<defs>
			<rect id="SVGID_3_" x="-133.505" y="-23.638" width="864.01" height="432.276"/>
		</defs>
		<clipPath id="SVGID_4_">
			<use xlink:href="#SVGID_3_"  overflow="visible"/>
		</clipPath>
		<g clip-path="url(#SVGID_4_)">
			<defs>
				<rect id="SVGID_5_" x="-133.505" y="-23.638" width="864.01" height="432.276"/>
			</defs>
			<clipPath id="SVGID_6_">
				<use xlink:href="#SVGID_5_"  overflow="visible"/>
			</clipPath>
			<path clip-path="url(#SVGID_6_)" fill="none" d="M730.506-22.892v431.52h-863.28c-0.34,0.02-0.68,0.04-0.72-0.239V-22.652
				c-0.02-0.34-0.04-0.68,0.24-0.72h835.44c8.97,0,18.129-0.6,26.879,0C729.506-23.342,730.466-23.772,730.506-22.892
				 M680.586,346.708v-10.319c-6.141-1.011-11.94,1.459-16.801-0.241c-5.689-2-4.8-10.3-4.8-18v-41.759
				c0-18.301,1.88-38.621-3.12-52.561c-9.54-26.58-37.939-38.92-74.88-37.2c-16.649,0.77-35.74,4.73-46.32,12.959
				c-7.359,5.72-6.909,15.78-6.479,29.28h11.52c0.851-5.38-1.34-13.561,0.48-18.479c1.49-4.011,8.91-6.881,13.68-8.641
				c16.03-5.93,42.04-6.73,59.28-1.68c23.8,6.97,37.32,24.05,34.32,55.92c-17-16.79-54.46-21.141-87.841-16.801
				c-31.68,4.11-52.84,19.921-51.84,55.921c0.96,34.51,23.301,48.909,54.96,52.8c34.021,4.18,68.609-1.851,84.721-20.16
				C648.836,344.798,660.575,348.298,680.586,346.708 M489.306,272.548c0.5-57.64-28.36-88.97-87.84-86.16
				c-31.111,1.47-51.891,15.31-63.12,36.72c-11.55,22.039-13.311,56.92-3.36,82.8c9.13,23.739,28.99,38,57.119,41.76
				c14.941,2,31.541,1.32,45.361-2.16c12.37-3.119,25.08-9.06,32.639-17.04c5.25-5.54,6.731-13.359,5.761-25.439h-11.52
				c-0.59,4.189,0.88,10.25-0.241,14.399c-1.349,5-9.33,9.74-14.159,12.24c-17.01,8.82-45.55,11.37-66.96,5.52
				c-28.149-7.689-41.89-29.699-42.961-62.64H489.306z M308.104,346.468v-10.32c-4.739-0.869-11.889,1.271-16.559-0.239
				c-5.42-1.75-4.8-9.971-4.8-18v-162.24c0-11.3-2.23-27,4.8-29.28c4.6-1.49,12.28,0.62,16.559-0.24v-10.08
				c-6.089,0.38-12.089-0.51-17.039,0c-7.47,0.77-14.95,8.14-15.84,16.08c-0.74,6.6,0,14.38,0,22.08v66.24
				c-8.41-13.77-20.08-23.45-36.72-29.04c-16.32-5.48-39.98-6.12-58.32-1.68c-34.05,8.24-54,35.12-54,77.52
				c0,43.101,17.77,70.371,52.8,78.721c18.48,4.409,42.06,3.8,58.8-1.2c16.91-5.05,29.24-15.28,37.44-28.08
				c-1.12,14.34,1.36,23.59,10.32,28.08C291.076,347.558,299.466,346.098,308.104,346.468 M166.025,105.268
				c10.26-0.21,18.83-9.16,17.76-20.64c-0.89-9.55-9-17.79-19.92-16.56c-2.67,0.3-5.07,0.86-6.96,1.92
				C141.855,78.408,146.175,105.678,166.025,105.268 M158.826,142.948c8.06,0.1,15.57-6.8,14.16-17.04
				c-1.02-7.41-7.67-12.91-15.84-11.76c-7.16,1.01-12.92,6.83-12.24,15.6C145.416,136.318,150.996,142.848,158.826,142.948
				 M161.706,39.988c0.61-6.97-1.9-12.09-4.32-15.36c-3.89-5.26-9.81-9.45-19.2-8.4c-9.81,1.1-17.78,8.87-18.72,18.96
				c-1.26,13.54,8.25,24.55,21.12,24.48C151.886,59.608,160.766,50.818,161.706,39.988 M149.706,154.948
				c0.84-9.17-5.96-15.16-14.64-13.68c-5.83,1-10.69,6.45-9.84,13.92c0.45,3.94,3.38,8.39,7.44,10.08
				C141.525,168.948,149.096,161.528,149.706,154.948 M115.625,171.988c5.97-7.13,0-17.99-9.12-16.32c-5.02,0.92-8.09,5-7.92,10.08
				C98.835,173.258,109.275,179.578,115.625,171.988 M107.706,31.828c0.93-10.65-3.84-18.38-8.4-22.32
				c-4.06-3.51-10.59-6.63-18.72-5.76c-3.57,0.38-5.8,1.04-7.68,1.92c-7.33,3.45-13.64,10.53-14.4,21.12
				c-0.6,8.34,2.82,16.57,8.64,21.6C81.496,60.788,105.956,51.938,107.706,31.828 M99.306,346.468v-157.2h-11.04
				c-0.3,0.1-0.49,0.31-0.48,0.72v156.479H99.306z M82.505,171.748c9.86-2.64,6.67-19.09-4.32-16.8
				C66.976,157.288,71.476,174.698,82.505,171.748 M67.625,151.108c0.06-4.12-3.08-6.74-6.96-6.24c-3.92,0.5-5.56,3.07-5.52,6.24
				C55.255,159.188,67.496,159.338,67.625,151.108 M62.826,239.428c0.62-14.17,0.36-25.45-5.52-32.399
				c-6.15-7.271-17.24-12.54-27.84-15.84c-11.4-3.55-25.1-5.22-39.12-4.56c-32.79,1.55-53.9,16.75-65.28,39.599
				c-6.02,12.091-9.29,26.811-9.12,42.96c0.17,16.051,3.65,30.58,9.84,42.24c12.16,22.92,33.53,35.88,66.48,37.44
				c15.05,0.71,31.99-1.75,44.64-6.96c10.97-4.52,24.8-11.63,25.92-26.16c0.52-6.7-0.38-11.79,0-19.68h-11.28
				c-0.77,7.529,1.33,15.89-0.72,21.84c-2.18,6.34-8.64,9.75-14.16,12.48c-6.31,3.119-12.87,5.299-20.16,6.72
				c-15.46,3.01-35.93,1.699-48-2.4c-25.2-8.569-41.04-32.45-41.04-66.48c0-34.569,15.56-57.979,40.56-66.96
				c20.62-7.409,51.27-4.59,68.16,3.841c5.56,2.77,12.06,6.53,14.4,12.479c2.26,5.74,0.28,13.78,0.96,21.84H62.826z M55.386,66.628
				c0.85-9.73-2.98-17.16-6.96-21.6c-4.23-4.71-11.9-8.71-20.64-8.16c-5.14,0.32-8.52,1.41-11.76,3.36
				c-7.07,4.25-12.99,12.35-12.96,23.52c0.04,16.16,12.71,26.98,26.4,26.88C42.755,90.538,54.215,80.038,55.386,66.628
				 M52.505,133.588c0.16-3.63-2.44-5.66-5.52-5.28c-3.36,0.42-4.66,2.65-4.56,5.28C42.666,139.838,52.226,139.998,52.505,133.588
				 M43.146,120.868c3.99,0.05,4.32-7.81-0.96-6.24C38.746,115.658,39.866,120.828,43.146,120.868"/>
			<path clip-path="url(#SVGID_6_)" fill="#4BC2C4" d="M680.585,336.388v10.32c-20.009,1.59-31.75-1.91-33.12-18.96
				c-16.109,18.31-50.7,24.34-84.719,20.16c-31.661-3.891-54-18.29-54.96-52.8c-1-36,20.16-51.811,51.839-55.921
				c33.38-4.34,70.84,0.011,87.84,16.801c3-31.87-10.519-48.95-34.319-55.92c-17.239-5.051-43.25-4.25-59.279,1.68
				c-4.771,1.76-12.191,4.63-13.681,8.64c-1.819,4.92,0.369,13.101-0.48,18.48h-11.52c-0.431-13.5-0.881-23.561,6.479-29.28
				c10.581-8.229,29.67-12.189,46.321-12.959c36.938-1.721,65.34,10.62,74.88,37.2c5,13.939,3.12,34.26,3.12,52.56v41.76
				c0,7.7-0.892,16,4.8,18C668.646,337.848,674.446,335.378,680.585,336.388 M647.225,297.988c0.86-10.521-0.17-21.771-5.278-30.721
				c-8.691-15.22-35.301-19.92-61.2-18.96c-22.331,0.83-41.431,3.34-52.081,14.88c-10.95,11.86-12.78,41.511-2.64,56.4
				c9.461,13.89,31.211,18.97,53.279,19.2C613.795,339.147,644.536,330.958,647.225,297.988"/>
			<path clip-path="url(#SVGID_6_)" fill="none" d="M641.945,267.268c5.109,8.95,6.141,20.2,5.279,30.721
				c-2.688,32.97-33.429,41.159-67.92,40.801c-22.069-0.231-43.819-5.312-53.28-19.201c-10.14-14.89-8.309-44.54,2.642-56.4
				c10.648-11.54,29.75-14.05,52.08-14.88C606.645,247.348,633.256,252.048,641.945,267.268"/>
			<path clip-path="url(#SVGID_6_)" fill="#4BC2C4" d="M401.465,186.388c59.481-2.81,88.34,28.521,87.84,86.16H340.025
				c1.069,32.941,14.81,54.95,42.961,62.64c21.409,5.851,49.949,3.302,66.96-5.52c4.829-2.5,12.809-7.24,14.159-12.24
				c1.119-4.149-0.351-10.21,0.239-14.399h11.521c0.969,12.08-0.511,19.899-5.761,25.439c-7.561,7.98-20.271,13.92-32.641,17.04
				c-13.819,3.481-30.42,4.16-45.359,2.16c-28.131-3.76-47.989-18.021-57.119-41.76c-9.95-25.88-8.191-60.761,3.358-82.8
				C349.576,201.698,370.355,187.858,401.465,186.388 M340.265,262.468h137.521c-2.471-43.63-27.481-68.54-75.361-66
				C362.925,198.568,342.295,222.918,340.265,262.468"/>
			<path clip-path="url(#SVGID_6_)" fill="none" d="M477.785,262.468H340.265c2.031-39.55,22.661-63.899,62.161-66
				C450.306,193.928,475.314,218.838,477.785,262.468"/>
			<path clip-path="url(#SVGID_6_)" fill="#4BC2C4" d="M308.105,336.147v10.32c-8.64-0.37-17.03,1.09-22.56-1.68
				c-8.96-4.49-11.44-13.74-10.32-28.08c-8.2,12.8-20.53,23.03-37.44,28.08c-16.74,5-40.32,5.609-58.8,1.2
				c-35.03-8.351-52.8-35.62-52.8-78.721c0-42.399,19.95-69.279,54-77.52c18.34-4.44,42-3.8,58.32,1.68
				c16.64,5.59,28.31,15.271,36.72,29.04v-66.24c0-7.7-0.74-15.48,0-22.08c0.89-7.94,8.37-15.31,15.84-16.08
				c4.95-0.51,10.95,0.38,17.04,0v10.08c-4.28,0.86-11.96-1.25-16.56,0.24c-7.03,2.28-4.8,17.98-4.8,29.28v162.24
				c0,8.029-0.62,16.25,4.8,18C296.215,337.418,303.365,335.278,308.105,336.147 M213.065,338.548
				c43.93-2.08,64.22-29.8,61.92-77.04c-1.05-21.54-9.05-38.26-20.64-48.96c-12.02-11.1-31.56-16.84-54.48-15.36
				c-5.13,0.33-10.59,0.931-15.6,2.16c-32.25,7.9-48.07,34.83-46.56,75.12C139.365,318.888,165.315,340.808,213.065,338.548"/>
			<path clip-path="url(#SVGID_6_)" fill="none" d="M274.985,261.508c2.3,47.24-17.99,74.96-61.92,77.04
				c-47.75,2.26-73.7-19.66-75.36-64.08c-1.51-40.29,14.31-67.22,46.56-75.12c5.01-1.229,10.47-1.83,15.6-2.16
				c22.92-1.479,42.46,4.261,54.48,15.36C265.936,223.248,273.936,239.968,274.985,261.508"/>
			<path clip-path="url(#SVGID_6_)" fill="#307278" d="M183.785,84.628c1.07,11.48-7.5,20.43-17.76,20.64
				c-19.85,0.41-24.17-26.86-9.12-35.28c1.89-1.06,4.29-1.62,6.96-1.92C174.785,66.838,182.895,75.078,183.785,84.628"/>
			<path clip-path="url(#SVGID_6_)" fill="#17504E" d="M172.985,125.908c1.41,10.24-6.1,17.14-14.16,17.04
				c-7.83-0.1-13.41-6.63-13.92-13.2c-0.68-8.77,5.08-14.59,12.24-15.6C165.315,112.998,171.965,118.498,172.985,125.908"/>
			<path clip-path="url(#SVGID_6_)" fill="#4B9399" d="M157.385,24.628c2.42,3.27,4.93,8.39,4.32,15.36
				c-0.94,10.83-9.82,19.62-21.12,19.68c-12.87,0.07-22.38-10.94-21.12-24.48c0.94-10.09,8.91-17.86,18.72-18.96
				C147.575,15.178,153.495,19.368,157.385,24.628"/>
			<path clip-path="url(#SVGID_6_)" fill="#0D3A39" d="M135.065,141.268c8.68-1.48,15.48,4.51,14.64,13.68
				c-0.61,6.58-8.18,14-17.04,10.32c-4.06-1.69-6.99-6.14-7.44-10.08C124.375,147.718,129.235,142.268,135.065,141.268"/>
			<path clip-path="url(#SVGID_6_)" fill="#004244" d="M106.505,155.668c9.12-1.67,15.09,9.19,9.12,16.32
				c-6.35,7.59-16.79,1.27-17.04-6.24C98.416,160.668,101.485,156.588,106.505,155.668"/>
			<path clip-path="url(#SVGID_6_)" fill="#54A7B7" d="M99.305,9.508c4.56,3.94,9.33,11.67,8.4,22.32
				c-1.75,20.11-26.21,28.96-40.56,16.56c-5.82-5.03-9.24-13.26-8.64-21.6c0.76-10.59,7.07-17.67,14.4-21.12
				c1.88-0.88,4.11-1.54,7.68-1.92C88.715,2.878,95.245,5.998,99.305,9.508"/>
			<path clip-path="url(#SVGID_6_)" fill="#4BC2C4" d="M99.305,189.268v157.2h-11.52V189.988c-0.01-0.41,0.18-0.62,0.48-0.72H99.305
				z"/>
			<path clip-path="url(#SVGID_6_)" fill="#004350" d="M78.186,154.948c10.99-2.29,14.18,14.16,4.32,16.8
				C71.476,174.698,66.976,157.288,78.186,154.948"/>
			<path clip-path="url(#SVGID_6_)" fill="#091A3A" d="M60.666,144.868c3.88-0.5,7.02,2.12,6.96,6.24c-0.13,8.23-12.37,8.08-12.48,0
				C55.105,147.938,56.746,145.368,60.666,144.868"/>
			<path clip-path="url(#SVGID_6_)" fill="#4BC2C4" d="M57.305,207.028c5.88,6.949,6.14,18.229,5.52,32.399h-11.28
				c-0.68-8.06,1.3-16.1-0.96-21.84c-2.34-5.95-8.84-9.71-14.4-12.479c-16.89-8.431-47.54-11.25-68.16-3.841
				c-25,8.98-40.56,32.391-40.56,66.96c0,34.029,15.84,57.91,41.04,66.48c12.07,4.1,32.54,5.41,48,2.4
				c7.29-1.421,13.85-3.602,20.16-6.721c5.52-2.729,11.98-6.14,14.16-12.479c2.05-5.95-0.05-14.311,0.72-21.84h11.28
				c-0.38,7.89,0.52,12.979,0,19.68c-1.12,14.53-14.95,21.64-25.92,26.16c-12.65,5.21-29.59,7.67-44.64,6.96
				c-32.95-1.561-54.32-14.521-66.48-37.44c-6.19-11.66-9.67-26.189-9.84-42.24c-0.17-16.149,3.1-30.869,9.12-42.96
				c11.38-22.85,32.49-38.05,65.28-39.599c14.02-0.661,27.72,1.009,39.12,4.56C40.065,194.488,51.155,199.757,57.305,207.028"/>
			<path clip-path="url(#SVGID_6_)" fill="#4BC2C4" d="M48.425,45.028c3.98,4.44,7.81,11.87,6.96,21.6
				c-1.17,13.41-12.63,23.91-25.92,24c-13.69,0.1-26.36-10.72-26.4-26.88c-0.03-11.17,5.89-19.27,12.96-23.52
				c3.24-1.95,6.62-3.04,11.76-3.36C36.525,36.318,44.195,40.318,48.425,45.028"/>
			<path clip-path="url(#SVGID_6_)" fill="#0A1B3B" d="M46.985,128.308c3.08-0.38,5.68,1.65,5.52,5.28c-0.28,6.41-9.84,6.25-10.08,0
				C42.325,130.958,43.625,128.728,46.985,128.308"/>
			<path clip-path="url(#SVGID_6_)" d="M42.186,114.628c5.28-1.57,4.95,6.29,0.96,6.24
				C39.866,120.828,38.746,115.658,42.186,114.628"/>
		</g>
	</g>
</g>
</svg>
